<?xml version="1.0" encoding="utf-8"?>
<svg xmlns="http://www.w3.org/2000/svg" xmlns:xlink="http://www.w3.org/1999/xlink" style="margin: auto; background-image: none; display: block; shape-rendering: auto;" width="101px" height="101px" viewBox="0 0 100 100" preserveAspectRatio="xMidYMid">
<g transform="translate(50 50)">
<g>
<animateTransform attributeName="transform" type="rotate" values="0;45" keyTimes="0;1" dur="0.4166666666666667s" repeatCount="indefinite"></animateTransform><path d="M28.91366458960192 -8 L39.91366458960192 -8 L39.91366458960192 8 L28.91366458960192 8 A30 30 0 0 1 26.101902549753255 14.78819405076849 L26.101902549753255 14.78819405076849 L33.88007714280528 22.56636864382051 L22.566368643820518 33.88007714280528 L14.788194050768494 26.10190254975325 A30 30 0 0 1 8.000000000000002 28.91366458960192 L8.000000000000002 28.91366458960192 L8.000000000000002 39.91366458960192 L-7.999999999999997 39.91366458960192 L-7.999999999999998 28.91366458960192 A30 30 0 0 1 -14.788194050768489 26.101902549753255 L-14.788194050768489 26.101902549753255 L-22.56636864382051 33.88007714280528 L-33.88007714280528 22.566368643820518 L-26.10190254975325 14.788194050768494 A30 30 0 0 1 -28.91366458960192 8.000000000000004 L-28.91366458960192 8.000000000000004 L-39.91366458960192 8.000000000000005 L-39.91366458960192 -7.999999999999995 L-28.91366458960192 -7.9999999999999964 A30 30 0 0 1 -26.101902549753255 -14.788194050768489 L-26.101902549753255 -14.788194050768489 L-33.88007714280528 -22.56636864382051 L-22.56636864382052 -33.88007714280528 L-14.788194050768498 -26.10190254975325 A30 30 0 0 1 -8.000000000000005 -28.91366458960192 L-8.000000000000005 -28.91366458960192 L-8.000000000000007 -39.91366458960192 L7.999999999999993 -39.91366458960192 L7.999999999999995 -28.91366458960192 A30 30 0 0 1 14.788194050768485 -26.10190254975326 L14.788194050768485 -26.10190254975326 L22.566368643820507 -33.880077142805284 L33.88007714280527 -22.56636864382052 L26.10190254975325 -14.788194050768498 A30 30 0 0 1 28.913664589601918 -8.000000000000007 M0 -20A20 20 0 1 0 0 20 A20 20 0 1 0 0 -20" fill="#07abcc"></path></g></g>
<!-- [ldio] generated by https://loading.io/ --></svg>